<svg xmlns="http://www.w3.org/2000/svg" width="82" height="82" viewBox="0 0 82 82">
  <g id="Group_158" data-name="Group 158" transform="translate(-746 -145)">
    <rect id="Rectangle_223" data-name="Rectangle 223" width="82" height="82" rx="10" transform="translate(746 145)" fill="#ffd950" opacity="0.17"/>
    <g id="Group_57" data-name="Group 57" transform="translate(767.856 160.681)">
      <path id="Path_342" data-name="Path 342" d="M226.7,284.544q-2.075,2.132-4.21,4.207a2.207,2.207,0,0,1-3.358-.029c-.663-.63-1.3-1.281-1.935-1.939a2.262,2.262,0,0,1-.181-3.277,2.316,2.316,0,0,1,3.3.131c.148.129.289.264.585.536.93-.961,1.791-1.891,2.7-2.781a2.166,2.166,0,0,1,3.263-.134A2.254,2.254,0,0,1,226.7,284.544Z" transform="translate(-209.451 -265.047)" fill="#ffd950"/>
      <path id="Path_343" data-name="Path 343" d="M226.7,316.544q-2.075,2.133-4.21,4.208a2.208,2.208,0,0,1-3.358-.028c-.663-.63-1.3-1.281-1.935-1.939a2.262,2.262,0,0,1-.181-3.277,2.316,2.316,0,0,1,3.3.131c.148.129.289.264.585.536.93-.961,1.791-1.891,2.7-2.781a2.166,2.166,0,0,1,3.263-.134A2.254,2.254,0,0,1,226.7,316.544Z" transform="translate(-209.451 -284.728)" fill="#ffd950"/>
      <path id="Path_344" data-name="Path 344" d="M237.515,249.473a13.243,13.243,0,0,0-.039-1.375,4.2,4.2,0,0,0-2.733-3.595,4.317,4.317,0,0,0-1.41-.261c-.107,0-.213,0-.324,0s-.205,0-.308,0c-1.367-.016-2.737,0-4.108,0-.257,0-.514-.036-.822-.063a3.5,3.5,0,0,0-2.323-3.938H210.212l-.059.024a3.5,3.5,0,0,0-2.259,3.911c-.34.024-.62.067-.9.067-1.335.008-2.674-.012-4.009,0-.1,0-.205,0-.308,0-.146,0-.292,0-.438,0a4.307,4.307,0,0,0-2.283.691l-.107.071a3.59,3.59,0,0,0-1.335,1.564c-.02.039-.04.083-.059.122s-.036.091-.055.138a4.427,4.427,0,0,0-.32,1.268l-.012.154c-.036.4-.032.81-.032,1.221q-.006,12.887,0,25.782v7.193a9.062,9.062,0,0,0,.269,2.536c.407,1.343,1.327,2.058,3.235,2.86h32.5c1.817-.766,2.737-1.458,3.164-2.694a8.358,8.358,0,0,0,.324-2.7v-8.2Q237.519,261.854,237.515,249.473Zm-25.533-5.222h11.641v3.855H211.982Zm21.638,38.619c-.008.794-.261,1.019-1.071,1.011-4.2-.024-8.406-.02-12.609-.02h-4.246c-4.227,0-8.449,0-12.676.02-.833.008-1.078-.229-1.074-1.074V282.8q.018-6.861.02-13.726.006-9.948-.016-19.9a2.483,2.483,0,0,1,.028-.4v-.008a.658.658,0,0,1,.608-.636h1.3a.1.1,0,0,1,.047,0c1.007.008,2.022,0,3.061,0h.873c.012.095.02.19.024.277a8.234,8.234,0,0,0,.012.9,3,3,0,0,0,1.489,2.406c.063.036.126.071.19.1a1.967,1.967,0,0,0,.19.083c.087.036.174.063.265.091a2.219,2.219,0,0,0,.28.063c.095.02.194.032.292.043s.2.012.3.012q6.9.024,13.8,0h.032a2.971,2.971,0,0,0,3.018-2.8c.032-.344,0-.7,0-1.173h.81c1.039,0,2.054.012,3.065,0a.112.112,0,0,1,.051,0h1.284c.517.079.64.419.64,1.047q-.012,7.714-.016,15.425v4.4q0,1.493,0,2.982,0,2.447,0,4.886.006,2.974.012,5.945Z" transform="translate(-198.03 -240.23)" fill="#ffd950"/>
      <path id="Path_345" data-name="Path 345" d="M263.709,302.72a2.144,2.144,0,0,1-2.338,2.271c-1.135.009-2.266.013-3.4.013-2.484.009-4.969,0-7.449-.013a2.186,2.186,0,0,1-2.382-2.24,2.078,2.078,0,0,1,1.683-2.048,3.236,3.236,0,0,1,.677-.08c1.83-.022,3.66-.009,5.485-.009,1.79,0,3.575-.013,5.365,0C262.832,300.641,263.678,301.411,263.709,302.72Z" transform="translate(-230.85 -277.03)" fill="#ffd950"/>
      <path id="Path_346" data-name="Path 346" d="M261.492,323.25a2.245,2.245,0,0,1-2.3,2.182q-.14.013-.281.013c-1.389.013-2.783,0-4.167,0s-2.783.018-4.172,0a2.167,2.167,0,0,1-2.431-2.186,2.216,2.216,0,0,1,2.489-2.262q3.693-.027,7.391,0c.316,0,.632,0,.948,0A2.282,2.282,0,0,1,261.492,323.25Z" transform="translate(-229.424 -289.452)" fill="#ffd950"/>
      <path id="Path_347" data-name="Path 347" d="M257,282.556a2.109,2.109,0,0,1-2.1,2.266c-.3.022-.592.031-.89.031-.2,0-.392,0-.588-.009-.044,0-.089,0-.129,0-.156,0-.3,0-.459,0-.049,0-.1,0-.156,0h-.16c-.116,0-.232,0-.347,0-.174,0-.347,0-.521.009-.321.009-.637.009-.957,0-.142,0-.289-.013-.436-.022a2.186,2.186,0,0,1-2.124-2.266,2.156,2.156,0,0,1,2.119-2.151c1.545-.071,3.1-.067,4.644,0A2.127,2.127,0,0,1,257,282.556Z" transform="translate(-228.972 -264.689)" fill="#ffd950"/>
    </g>
  </g>
</svg>
