<svg xmlns="http://www.w3.org/2000/svg" width="80" height="80" viewBox="0 0 80 80">
  <g id="Group_157" data-name="Group 157" transform="translate(-1124 -803)">
    <rect id="Rectangle_227" data-name="Rectangle 227" width="80" height="80" rx="10" transform="translate(1124 803)" fill="#02bc77" opacity="0.17"/>
    <g id="Group_62" data-name="Group 62" transform="translate(1142.604 819.782)">
      <path id="Path_348" data-name="Path 348" d="M518.47,267.527a2.676,2.676,0,0,1-.77-2.024c.031-5.461.017-10.922.014-16.384,0-3.3-1.637-4.933-4.929-4.937-1.591,0-3.183,0-4.868,0a3.469,3.469,0,0,0-2.291-3.951H490.59a3.41,3.41,0,0,0-2.218,3.874c-.368.029-.662.073-.957.075-1.564.006-3.13-.019-4.695.012a4.144,4.144,0,0,0-4.106,3.8,13.315,13.315,0,0,0-.042,1.355q0,16.271,0,32.546c0,3.147.647,4.141,3.456,5.323h29.238a27.864,27.864,0,0,0,4.881-1.9A11.586,11.586,0,0,0,518.47,267.527ZM492.34,244.2h11.582V248H492.34Zm8.623,39a6.8,6.8,0,0,1-.768.092c-5.568.006-11.136-.011-16.7.021-.823.006-1.063-.228-1.061-1.061q.041-16.6,0-33.193c0-.739.175-1.077.983-1.054,1.6.046,3.191.012,4.862.012.06.61.075,1.061.154,1.5a2.787,2.787,0,0,0,2.824,2.42q6.835.025,13.673,0a2.929,2.929,0,0,0,2.978-2.759c.033-.34.006-.687.006-1.157,1.8,0,3.535,0,5.265,0,.712,0,.6.529.6.969q.007,5.166,0,10.333V264.3c-6.144-1.46-11.144.094-14.239,5.726C497.043,274.574,497.851,279.012,500.963,283.2Zm8.991.1a7.75,7.75,0,0,1-7.9-7.821,7.842,7.842,0,0,1,7.792-7.859,7.942,7.942,0,0,1,7.884,7.811A7.828,7.828,0,0,1,509.954,283.295Z" transform="translate(-478.571 -240.232)" fill="#02bc77"/>
      <path id="Path_349" data-name="Path 349" d="M505.723,290.411l.3,0h.14c-.048,0-.094,0-.14,0C505.925,290.407,505.825,290.409,505.723,290.411Zm-1.293.008c.278.009.556.006.835,0C504.986,290.424,504.708,290.428,504.43,290.419Z" transform="translate(-494.349 -270.847)" fill="#02bc77"/>
      <path id="Path_350" data-name="Path 350" d="M512.306,302.46a1.874,1.874,0,0,1-2.044,1.988q-4.749.028-9.5,0a1.92,1.92,0,1,1-.019-3.826c1.6-.021,3.2-.006,4.8-.006,1.566,0,3.131-.012,4.7,0C511.542,300.636,512.281,301.313,512.306,302.46Z" transform="translate(-490.838 -277.073)" fill="#02bc77"/>
      <path id="Path_351" data-name="Path 351" d="M540.466,282.332c.012,1.22-.77,1.945-2.18,1.971-1.215.023-2.433,0-3.648,0s-2.433.017-3.65,0a1.969,1.969,0,1,1,.048-3.9q3.6-.022,7.2,0C539.62,280.413,540.452,281.152,540.466,282.332Z" transform="translate(-509.198 -264.737)" fill="#02bc77"/>
      <path id="Path_352" data-name="Path 352" d="M505.4,322.556a2.02,2.02,0,0,1-2.262,1.921c-1.217.012-2.435,0-3.651,0s-2.435.017-3.65,0a1.9,1.9,0,0,1-2.128-1.915,1.941,1.941,0,0,1,2.178-1.98q3.649-.025,7.3,0A2,2,0,0,1,505.4,322.556Z" transform="translate(-487.808 -289.25)" fill="#02bc77"/>
      <path id="Path_353" data-name="Path 353" d="M506.439,282.284a1.843,1.843,0,0,1-1.835,1.982c-.259.021-.518.027-.779.027q-.257,0-.514-.006l-.115,0c-.134,0-.265-.006-.4-.006-.046,0-.092,0-.138,0h-.14l-.3,0-.457.008c-.28.006-.558.009-.835,0q-.191-.006-.382-.021a1.908,1.908,0,0,1-1.858-1.982,1.883,1.883,0,0,1,1.854-1.882c1.351-.063,2.711-.06,4.064,0A1.856,1.856,0,0,1,506.439,282.284Z" transform="translate(-490.841 -264.715)" fill="#02bc77"/>
      <path id="Path_354" data-name="Path 354" d="M557.96,324.051q-1.817,1.867-3.686,3.684a1.933,1.933,0,0,1-2.941-.025c-.581-.551-1.143-1.122-1.694-1.7a1.981,1.981,0,0,1-.159-2.87,2.028,2.028,0,0,1,2.886.115c.13.113.253.232.512.47.814-.842,1.568-1.656,2.362-2.435a1.9,1.9,0,0,1,2.857-.117A1.974,1.974,0,0,1,557.96,324.051Z" transform="translate(-521.506 -289.258)" fill="#02bc77"/>
    </g>
  </g>
</svg>
