<svg xmlns="http://www.w3.org/2000/svg" width="79" height="79" viewBox="0 0 79 79">
  <g id="Group_95" data-name="Group 95" transform="translate(-828 -803)">
    <rect id="Rectangle_225" data-name="Rectangle 225" width="79" height="79" rx="10" transform="translate(828 803)" fill="#ff2366" opacity="0.17"/>
    <g id="Group_59" data-name="Group 59" transform="translate(848.161 819.465)">
      <path id="Path_355" data-name="Path 355" d="M396.108,267.012a2.625,2.625,0,0,1-.756-1.985c.031-5.358.016-10.716.014-16.074,0-3.235-1.606-4.84-4.835-4.844-1.562,0-3.123,0-4.776,0a3.4,3.4,0,0,0-2.248-3.877H368.755a3.346,3.346,0,0,0-2.176,3.8c-.361.029-.649.072-.938.074-1.535.006-3.072-.018-4.606.012a4.066,4.066,0,0,0-4.029,3.731,13.166,13.166,0,0,0-.041,1.33q0,15.963,0,31.931c0,3.088.635,4.063,3.391,5.223H389.04a27.356,27.356,0,0,0,4.788-1.866A11.367,11.367,0,0,0,396.108,267.012Zm-25.637-22.887h11.364v3.733H370.472Zm8.46,38.262a6.686,6.686,0,0,1-.754.09c-5.462.006-10.925-.01-16.385.021-.807.006-1.043-.223-1.041-1.041q.04-16.283,0-32.566c0-.725.172-1.057.965-1.035,1.565.045,3.131.012,4.77.012.059.6.074,1.041.151,1.473a2.735,2.735,0,0,0,2.77,2.375q6.707.025,13.415,0a2.873,2.873,0,0,0,2.922-2.707c.033-.334.006-.674.006-1.135,1.77,0,3.469,0,5.165,0,.7,0,.584.519.584.951q.006,5.068,0,10.138v4.883c-6.028-1.432-10.933.092-13.97,5.618C375.086,273.925,375.879,278.279,378.932,282.387Zm8.82.094A7.6,7.6,0,0,1,380,274.808a7.694,7.694,0,0,1,7.645-7.71,7.792,7.792,0,0,1,7.735,7.663A7.68,7.68,0,0,1,387.753,282.481Z" transform="translate(-356.963 -240.232)" fill="#ff2366"/>
      <path id="Path_356" data-name="Path 356" d="M384.09,290.411l.3,0h.137c-.047,0-.092,0-.137,0C384.289,290.407,384.191,290.409,384.09,290.411Zm-1.268.008c.273.008.545.006.82,0C383.367,290.423,383.095,290.428,382.822,290.419Z" transform="translate(-372.932 -271.217)" fill="#ff2366"/>
      <path id="Path_357" data-name="Path 357" d="M390.441,302.425a1.839,1.839,0,0,1-2.006,1.951q-4.659.027-9.321,0a1.883,1.883,0,1,1-.018-3.754c1.572-.02,3.141-.006,4.713-.006,1.536,0,3.071-.012,4.608,0C389.691,300.636,390.416,301.3,390.441,302.425Z" transform="translate(-369.378 -277.518)" fill="#ff2366"/>
      <path id="Path_358" data-name="Path 358" d="M418.638,282.3c.012,1.2-.756,1.908-2.139,1.934-1.193.023-2.387,0-3.58,0s-2.387.016-3.582,0a1.932,1.932,0,1,1,.047-3.825q3.531-.021,7.06,0C417.808,280.412,418.623,281.137,418.638,282.3Z" transform="translate(-387.961 -265.033)" fill="#ff2366"/>
      <path id="Path_359" data-name="Path 359" d="M383.572,322.518a1.982,1.982,0,0,1-2.219,1.885c-1.194.012-2.389,0-3.581,0s-2.389.016-3.582,0a1.863,1.863,0,0,1-2.088-1.879,1.9,1.9,0,0,1,2.137-1.943q3.58-.025,7.163,0A1.962,1.962,0,0,1,383.572,322.518Z" transform="translate(-366.312 -289.842)" fill="#ff2366"/>
      <path id="Path_360" data-name="Path 360" d="M384.685,282.248a1.809,1.809,0,0,1-1.8,1.944c-.254.02-.508.026-.764.026q-.252,0-.5-.006l-.113,0c-.131,0-.26-.006-.391-.006-.045,0-.09,0-.135,0h-.137l-.3,0-.449.008c-.275.006-.547.008-.82,0-.125,0-.25-.01-.375-.02a1.873,1.873,0,0,1-1.824-1.944,1.848,1.848,0,0,1,1.819-1.846c1.326-.062,2.66-.059,3.987,0A1.822,1.822,0,0,1,384.685,282.248Z" transform="translate(-369.381 -265.01)" fill="#ff2366"/>
      <path id="Path_361" data-name="Path 361" d="M428.579,329.738c1.353,0,2.707,0,4.06,0a1.07,1.07,0,0,0,1.186-1.046,1.055,1.055,0,0,0-1.151-1.079q-4.128-.009-8.257,0a1.391,1.391,0,0,0-.57.121,1.06,1.06,0,0,0,.488,2C425.75,329.744,427.164,329.737,428.579,329.738Z" transform="translate(-397.915 -294.189)" fill="#ff2366"/>
    </g>
  </g>
</svg>
