<svg xmlns="http://www.w3.org/2000/svg" width="82" height="82" viewBox="0 0 82 82">
  <g id="Group_147" data-name="Group 147" transform="translate(-320 -147)">
    <rect id="Rectangle_221" data-name="Rectangle 221" width="82" height="82" rx="10" transform="translate(320 147)" fill="#4791ff" opacity="0.17"/>
    <g id="Group_56" data-name="Group 56" transform="translate(340.611 164.212)">
      <path id="Path_337" data-name="Path 337" d="M78.483,249.466a13.242,13.242,0,0,0-.039-1.374,4.2,4.2,0,0,0-2.731-3.592,4.314,4.314,0,0,0-1.409-.26c-.107,0-.213,0-.324,0s-.205,0-.308,0c-1.366-.016-2.735,0-4.1,0-.257,0-.513-.035-.821-.063a3.494,3.494,0,0,0-2.321-3.935H51.2l-.059.024a3.5,3.5,0,0,0-2.258,3.907c-.339.024-.62.067-.9.067-1.334.008-2.672-.012-4.006,0-.1,0-.205,0-.308,0-.146,0-.292,0-.438,0a4.3,4.3,0,0,0-2.281.691l-.107.071a3.587,3.587,0,0,0-1.334,1.563c-.02.039-.039.083-.059.122s-.036.091-.055.138a4.425,4.425,0,0,0-.32,1.267l-.012.154c-.036.4-.032.809-.032,1.22q-.006,12.877,0,25.761v7.187a9.054,9.054,0,0,0,.268,2.534c.407,1.342,1.326,2.056,3.233,2.858H75c1.816-.766,2.735-1.456,3.161-2.692a8.351,8.351,0,0,0,.324-2.7v-8.2Q78.487,261.837,78.483,249.466ZM52.97,244.248H64.6V248.1H52.97Zm21.621,38.588c-.008.793-.26,1.018-1.07,1.01-4.2-.024-8.4-.02-12.6-.02H56.681c-4.223,0-8.442,0-12.666.02-.833.008-1.078-.229-1.074-1.074v-.012q.018-6.856.02-13.715.006-9.94-.016-19.88a2.48,2.48,0,0,1,.028-.4v-.008a.657.657,0,0,1,.608-.635h1.3a.1.1,0,0,1,.047,0c1.006.008,2.021,0,3.059,0h.872c.012.095.02.189.024.276a8.212,8.212,0,0,0,.012.9,3,3,0,0,0,1.488,2.4c.063.036.126.071.189.1a1.963,1.963,0,0,0,.189.083c.087.036.174.063.264.091a2.222,2.222,0,0,0,.28.063c.095.02.193.032.292.043s.2.012.3.012q6.891.024,13.79,0h.032a2.969,2.969,0,0,0,3.015-2.794c.032-.343,0-.695,0-1.172h.809c1.038,0,2.052.012,3.063,0a.112.112,0,0,1,.051,0h1.283c.517.079.639.418.639,1.046q-.012,7.708-.016,15.413v4.393q0,1.492,0,2.98,0,2.445,0,4.882.006,2.972.012,5.94Z" transform="translate(-39.03 -240.23)" fill="#4791ff"/>
      <path id="Path_338" data-name="Path 338" d="M74.7,302.718a2.142,2.142,0,0,1-2.336,2.269c-1.134.009-2.264.013-3.4.013-2.482.009-4.965,0-7.443-.013a2.184,2.184,0,0,1-2.38-2.238,2.076,2.076,0,0,1,1.682-2.047,3.233,3.233,0,0,1,.676-.08c1.828-.022,3.657-.009,5.481-.009,1.788,0,3.572-.013,5.361,0C73.82,300.641,74.666,301.41,74.7,302.718Z" transform="translate(-51.745 -277.049)" fill="#4791ff"/>
      <path id="Path_339" data-name="Path 339" d="M102.581,282.606c.013,1.388-.881,2.216-2.487,2.247-1.388.027-2.776,0-4.164,0s-2.776.022-4.169,0a2.247,2.247,0,1,1,.058-4.449q4.1-.027,8.213,0C101.615,280.412,102.563,281.258,102.581,282.606Z" transform="translate(-70.497 -264.723)" fill="#4791ff"/>
      <path id="Path_340" data-name="Path 340" d="M67.512,322.838a2.243,2.243,0,0,1-2.3,2.18q-.14.013-.28.013c-1.388.013-2.781,0-4.164,0s-2.781.018-4.169,0a2.166,2.166,0,0,1-2.429-2.184,2.214,2.214,0,0,1,2.487-2.26q3.69-.027,7.385,0c.316,0,.632,0,.948,0A2.28,2.28,0,0,1,67.512,322.838Z" transform="translate(-48.52 -289.227)" fill="#4791ff"/>
      <path id="Path_341" data-name="Path 341" d="M68,282.554a2.107,2.107,0,0,1-2.1,2.264c-.3.022-.592.031-.89.031-.2,0-.391,0-.587-.009-.044,0-.089,0-.129,0-.156,0-.3,0-.458,0-.049,0-.1,0-.156,0h-.16c-.116,0-.231,0-.347,0-.174,0-.347,0-.521.009-.32.009-.636.009-.957,0-.142,0-.289-.013-.436-.022a2.184,2.184,0,0,1-2.122-2.264,2.154,2.154,0,0,1,2.118-2.149c1.544-.071,3.1-.067,4.64,0A2.125,2.125,0,0,1,68,282.554Z" transform="translate(-51.453 -264.702)" fill="#4791ff"/>
    </g>
  </g>
</svg>
